# xmcd
#
# Track frame offsets:
#  150
#  4662
#  23527
#  45520
#  64577
#  85097
#  105970
#  128787
#  152180
#  176867
#  199985
#  221787
#
# Disc length: 3319 seconds
#
# Revision: 0
# Processed by: cddbd v1.5PL3 Copyright (c) Steve Scherf et al.
# Submitted via: AltoMP3_Maker 3.0
#
DISCID=970cf50c
DTITLE=Baddigo - Come Along
DYEAR=1900
DGENRE=
TTITLE0=Baddiecho
TTITLE1=Empire
TTITLE2=Descending
TTITLE3=Follow
TTITLE4=Come Along
TTITLE5=Sati
TTITLE6=Believe In No One
TTITLE7=Let It Out
TTITLE8=Eyes
TTITLE9=Ride
TTITLE10=The Moment
TTITLE11=Back Down
EXTD=
EXTT0=
EXTT1=
EXTT2=
EXTT3=
EXTT4=
EXTT5=
EXTT6=
EXTT7=
EXTT8=
EXTT9=
EXTT10=
EXTT11=
PLAYORDER=
